<svg xmlns="http://www.w3.org/2000/svg" xmlns:se="http://svg-edit.googlecode.com" xmlns:xlink="http://www.w3.org/1999/xlink" xmlns:dc="http://purl.org/dc/elements/1.1/" xmlns:cc="http://creativecommons.org/ns#" xmlns:rdf="http://www.w3.org/1999/02/22-rdf-syntax-ns#" xmlns:inkscape="http://www.inkscape.org/namespaces/inkscape" width="413" height="386" style="">
                                    <title>my vector image</title>
                                    <!-- Created with Vector Paint - http://www.vectorpaint.yaks.com/ https://chrome.google.com/webstore/detail/hnbpdiengicdefcjecjbnjnoifekhgdo -->
                                    <rect id="backgroundrect" width="100%" height="100%" x="0" y="0" fill="#FFFFFF" stroke="none" class="" style=""/>
                                <g style="" class="currentLayer"><title>Layer 1</title><path fill="#2880d3" fill-opacity="1" stroke="none" stroke-opacity="1" stroke-width="2" stroke-dasharray="none" stroke-linejoin="round" stroke-linecap="butt" stroke-dashoffset="" fill-rule="nonzero" opacity="1" marker-start="" marker-mid="" marker-end="" d="M57.633608853089754,313.91984447639015 C57.633608853089754,291.5483722129203 88.26780262125709,273.42747967950976 126.0877949276366,273.42747967950976 C163.90778723401598,273.42747967950976 194.54198100218332,291.5483722129203 194.54198100218332,313.91984447639015 C194.54198100218332,336.29131673986 163.90778723401598,354.4122092732706 126.0877949276366,354.4122092732706 C88.26780262125709,354.4122092732706 57.633608853089754,336.29131673986 57.633608853089754,313.91984447639015 z" class="" id="svg_8"/><path fill="#355dba" fill-opacity="1" stroke="none" stroke-opacity="1" stroke-width="2" stroke-dasharray="none" stroke-linejoin="round" stroke-linecap="butt" stroke-dashoffset="" fill-rule="nonzero" opacity="1" marker-start="" marker-mid="" marker-end="" d="M2.654158492987335e-7,192.82824379205704 C2.654158492987335e-7,86.29330247047855 92.44234561425611,0 206.56869789677495,0 C320.6950501792938,0 413.137395528134,86.29330247047855 413.137395528134,192.82824379205704 C413.137395528134,299.3631851136355 320.6950501792938,385.6564875841141 206.56869789677495,385.6564875841141 C92.44234561425611,385.6564875841141 2.654158492987335e-7,299.3631851136355 2.654158492987335e-7,192.82824379205704 z" id="svg_9" class=""/><path fill="#ffc293" fill-opacity="1" stroke="none" stroke-opacity="1" stroke-width="2" stroke-dasharray="none" stroke-linejoin="round" stroke-linecap="butt" stroke-dashoffset="" fill-rule="nonzero" opacity="1" marker-start="" marker-mid="" marker-end="" d="M123.99485498623511,111.48704741244865 C123.99485498623511,66.63157507950082 165.4365470386603,30.29864248981309 216.5991298194321,30.29864248981309 C267.76171260020396,30.29864248981309 309.20340465262905,66.63157507950082 309.20340465262905,111.48704741244865 C309.20340465262905,156.34251974539646 267.76171260020396,192.67545233508426 216.5991298194321,192.67545233508426 C165.4365470386603,192.67545233508426 123.99485498623511,156.34251974539646 123.99485498623511,111.48704741244865 z" class="" id="svg_46"/><path fill="#355dba" fill-opacity="1" stroke="none" stroke-opacity="1" stroke-width="2" stroke-dasharray="none" stroke-linejoin="round" stroke-linecap="butt" stroke-dashoffset="" fill-rule="nonzero" opacity="1" marker-start="" marker-mid="" marker-end="" d="M214.9523317339325,108.79698358375163 C214.9523317339325,64.40165854111613 246.44629308862432,28.441445256581403 285.3277268598488,28.441445256581403 C324.20916063107325,28.441445256581403 355.70312198576494,64.40165854111613 355.70312198576494,108.79698358375163 C355.70312198576494,153.19230862638707 324.20916063107325,189.15252191092173 285.3277268598488,189.15252191092173 C246.44629308862432,189.15252191092173 214.9523317339325,153.19230862638707 214.9523317339325,108.79698358375163 z" id="svg_2" class=""/><path fill="#355dba" fill-opacity="1" stroke="none" stroke-opacity="1" stroke-width="2" stroke-dasharray="none" stroke-linejoin="round" stroke-linecap="butt" stroke-dashoffset="" fill-rule="nonzero" opacity="1" marker-start="" marker-mid="" marker-end="" d="M115.35114288330078,232.1870231628418 C115.35114288330078,231.35829388107385 115.79865669545546,230.6870231628418 116.35114288330078,230.6870231628418 C116.9036290711461,230.6870231628418 117.35114288330078,231.35829388107385 117.35114288330078,232.1870231628418 C117.35114288330078,233.01575244460975 116.9036290711461,233.6870231628418 116.35114288330078,233.6870231628418 C115.79865669545546,233.6870231628418 115.35114288330078,233.01575244460975 115.35114288330078,232.1870231628418 z" id="svg_11" class=""/><path fill="#2880d3" fill-opacity="1" stroke="none" stroke-opacity="1" stroke-width="2" stroke-dasharray="none" stroke-linejoin="round" stroke-linecap="butt" stroke-dashoffset="" fill-rule="nonzero" opacity="1" marker-start="" marker-mid="" marker-end="" d="M73.51147677864728,321.78244170368947 C73.51147677864728,287.39123105150145 134.37847454336003,259.5343504232291 209.52291622819064,259.5343504232291 C284.66735791302114,259.5343504232291 345.53435567773386,287.39123105150145 345.53435567773386,321.78244170368947 C345.53435567773386,356.1736523558775 284.66735791302114,384.03053298414983 209.52291622819064,384.03053298414983 C134.37847454336003,384.03053298414983 73.51147677864728,356.1736523558775 73.51147677864728,321.78244170368947 z" id="svg_14" class=""/><path fill="#2880d3" fill-opacity="1" stroke="none" stroke-opacity="1" stroke-width="2" stroke-dasharray="none" stroke-linejoin="round" stroke-linecap="butt" stroke-dashoffset="" fill-rule="nonzero" opacity="1" marker-start="" marker-mid="" marker-end="" d="M3.2869535907279612,297.4047200250422 C3.2869535907279612,275.03324776157234 39.75575679390536,256.9123552281618 84.77897062498866,256.9123552281618 C129.80218445607184,256.9123552281618 166.27098765924927,275.03324776157234 166.27098765924927,297.4047200250422 C166.27098765924927,319.77619228851205 129.80218445607184,337.89708482192265 84.77897062498866,337.89708482192265 C39.75575679390536,337.89708482192265 3.2869535907279612,319.77619228851205 3.2869535907279612,297.4047200250422 z" class="" id="svg_10" transform="rotate(43.86198806762695 84.77898406982436,297.40469360351557) "/><path fill="#2880d3" fill-opacity="1" stroke="none" stroke-opacity="1" stroke-width="2" stroke-dasharray="none" stroke-linejoin="round" stroke-linecap="butt" stroke-dashoffset="" fill-rule="nonzero" opacity="1" marker-start="" marker-mid="" marker-end="" d="M248.76754112056153,300.04271615504416 C248.76754112056153,277.6712438915743 284.08633664101524,259.55035135816377 327.6897879008348,259.55035135816377 C371.29323916065425,259.55035135816377 406.61203468110807,277.6712438915743 406.61203468110807,300.04271615504416 C406.61203468110807,322.414188418514 371.29323916065425,340.5350809519246 327.6897879008348,340.5350809519246 C284.08633664101524,340.5350809519246 248.76754112056153,322.414188418514 248.76754112056153,300.04271615504416 z" class="" transform="rotate(-44.953956604003906 327.68975830078114,300.0426940917968) " id="svg_1"/><path fill="#5792db" fill-opacity="1" stroke="none" stroke-opacity="1" stroke-width="2" stroke-dasharray="none" stroke-linejoin="round" stroke-linecap="butt" stroke-dashoffset="" fill-rule="nonzero" opacity="1" marker-start="" marker-mid="" marker-end="" d="M10.793889999389648,252.85113600353907 C10.793889999389648,231.47498051382297 98.5065971817101,214.16029456715296 206.79388999938965,214.16029456715296 C315.0811828170692,214.16029456715296 402.79388999938965,231.47498051382297 402.79388999938965,252.85113600353907 C402.79388999938965,274.22729149325517 315.0811828170692,291.5419774399252 206.79388999938965,291.5419774399252 C98.5065971817101,291.5419774399252 10.793889999389648,274.22729149325517 10.793889999389648,252.85113600353907 z" id="svg_3" class=""/></g></svg>